<mxfile host="Electron" agent="Mozilla/5.0 (Windows NT 10.0; Win64; x64) AppleWebKit/537.36 (KHTML, like Gecko) draw.io/24.7.17 Chrome/128.0.6613.36 Electron/32.0.1 Safari/537.36" version="24.7.17">
  <diagram name="Page-1" id="xuZIYypPhhsNgco9hf-v">
    <mxGraphModel dx="1381" dy="1977" grid="1" gridSize="10" guides="1" tooltips="1" connect="1" arrows="1" fold="1" page="1" pageScale="1" pageWidth="827" pageHeight="1169" math="0" shadow="0">
      <root>
        <mxCell id="0" />
        <mxCell id="1" parent="0" />
        <mxCell id="5CWpA3QOyKz6j6wSETN9-1" value="" style="whiteSpace=wrap;html=1;aspect=fixed;" parent="1" vertex="1">
          <mxGeometry x="474" y="-330" width="780" height="780" as="geometry" />
        </mxCell>
        <mxCell id="5CWpA3QOyKz6j6wSETN9-2" value="Ouvrier" style="shape=umlActor;verticalLabelPosition=bottom;verticalAlign=top;html=1;outlineConnect=0;" parent="1" vertex="1">
          <mxGeometry x="414" y="265" width="30" height="60" as="geometry" />
        </mxCell>
        <mxCell id="5CWpA3QOyKz6j6wSETN9-3" value="Admin" style="shape=umlActor;verticalLabelPosition=bottom;verticalAlign=top;html=1;outlineConnect=0;" parent="1" vertex="1">
          <mxGeometry x="414" y="-45" width="30" height="60" as="geometry" />
        </mxCell>
        <mxCell id="5CWpA3QOyKz6j6wSETN9-4" value="Se connecter" style="ellipse;whiteSpace=wrap;html=1;" parent="1" vertex="1">
          <mxGeometry x="544" y="270" width="120" height="50" as="geometry" />
        </mxCell>
        <mxCell id="5CWpA3QOyKz6j6wSETN9-5" value="Se connecter" style="ellipse;whiteSpace=wrap;html=1;" parent="1" vertex="1">
          <mxGeometry x="554" y="-40" width="120" height="50" as="geometry" />
        </mxCell>
        <mxCell id="5CWpA3QOyKz6j6wSETN9-6" value="Consulter les chantiers existants" style="ellipse;whiteSpace=wrap;html=1;" parent="1" vertex="1">
          <mxGeometry x="724" y="-215" width="120" height="50" as="geometry" />
        </mxCell>
        <mxCell id="5CWpA3QOyKz6j6wSETN9-7" value="Creer un nouveau chantier" style="ellipse;whiteSpace=wrap;html=1;" parent="1" vertex="1">
          <mxGeometry x="994" y="-295" width="120" height="50" as="geometry" />
        </mxCell>
        <mxCell id="5CWpA3QOyKz6j6wSETN9-8" value="Voir ses affectations de chantiers" style="ellipse;whiteSpace=wrap;html=1;" parent="1" vertex="1">
          <mxGeometry x="724" y="270" width="120" height="50" as="geometry" />
        </mxCell>
        <mxCell id="5CWpA3QOyKz6j6wSETN9-9" value="Consulter les détails d&#39;un chantier" style="ellipse;whiteSpace=wrap;html=1;" parent="1" vertex="1">
          <mxGeometry x="984" y="270" width="120" height="50" as="geometry" />
        </mxCell>
        <mxCell id="5CWpA3QOyKz6j6wSETN9-10" value="Modifier un chantier" style="ellipse;whiteSpace=wrap;html=1;" parent="1" vertex="1">
          <mxGeometry x="994" y="-215" width="120" height="50" as="geometry" />
        </mxCell>
        <mxCell id="5CWpA3QOyKz6j6wSETN9-11" value="supprimer un chantier" style="ellipse;whiteSpace=wrap;html=1;" parent="1" vertex="1">
          <mxGeometry x="994" y="-135" width="120" height="50" as="geometry" />
        </mxCell>
        <mxCell id="5CWpA3QOyKz6j6wSETN9-12" value="Consulter les ouvriers" style="ellipse;whiteSpace=wrap;html=1;" parent="1" vertex="1">
          <mxGeometry x="724" y="75" width="120" height="50" as="geometry" />
        </mxCell>
        <mxCell id="5CWpA3QOyKz6j6wSETN9-13" value="Supprimer un ouvrier" style="ellipse;whiteSpace=wrap;html=1;" parent="1" vertex="1">
          <mxGeometry x="994" y="150" width="120" height="50" as="geometry" />
        </mxCell>
        <mxCell id="5CWpA3QOyKz6j6wSETN9-14" value="Creer un nouvel ouvrier" style="ellipse;whiteSpace=wrap;html=1;" parent="1" vertex="1">
          <mxGeometry x="994" y="10" width="120" height="50" as="geometry" />
        </mxCell>
        <mxCell id="5CWpA3QOyKz6j6wSETN9-15" value="" style="endArrow=none;html=1;rounded=0;exitX=0.5;exitY=0.5;exitDx=0;exitDy=0;exitPerimeter=0;entryX=0;entryY=0.5;entryDx=0;entryDy=0;" parent="1" source="5CWpA3QOyKz6j6wSETN9-3" target="5CWpA3QOyKz6j6wSETN9-5" edge="1">
          <mxGeometry width="50" height="50" relative="1" as="geometry">
            <mxPoint x="714" y="65" as="sourcePoint" />
            <mxPoint x="764" y="15" as="targetPoint" />
          </mxGeometry>
        </mxCell>
        <mxCell id="5CWpA3QOyKz6j6wSETN9-16" value="" style="endArrow=none;html=1;rounded=0;exitX=0.5;exitY=0.5;exitDx=0;exitDy=0;exitPerimeter=0;entryX=0;entryY=0.5;entryDx=0;entryDy=0;" parent="1" source="5CWpA3QOyKz6j6wSETN9-2" target="5CWpA3QOyKz6j6wSETN9-4" edge="1">
          <mxGeometry width="50" height="50" relative="1" as="geometry">
            <mxPoint x="714" y="65" as="sourcePoint" />
            <mxPoint x="764" y="15" as="targetPoint" />
          </mxGeometry>
        </mxCell>
        <mxCell id="5CWpA3QOyKz6j6wSETN9-17" value="" style="endArrow=none;dashed=1;html=1;rounded=0;startArrow=classicThin;startFill=1;entryX=0;entryY=0.5;entryDx=0;entryDy=0;exitX=1;exitY=0;exitDx=0;exitDy=0;" parent="1" source="5CWpA3QOyKz6j6wSETN9-5" target="5CWpA3QOyKz6j6wSETN9-6" edge="1">
          <mxGeometry width="50" height="50" relative="1" as="geometry">
            <mxPoint x="714" y="45" as="sourcePoint" />
            <mxPoint x="764" y="-5" as="targetPoint" />
          </mxGeometry>
        </mxCell>
        <mxCell id="5CWpA3QOyKz6j6wSETN9-18" value="" style="endArrow=none;dashed=1;html=1;rounded=0;startArrow=classicThin;startFill=1;entryX=0;entryY=0.5;entryDx=0;entryDy=0;exitX=1;exitY=1;exitDx=0;exitDy=0;" parent="1" source="5CWpA3QOyKz6j6wSETN9-5" target="5CWpA3QOyKz6j6wSETN9-12" edge="1">
          <mxGeometry width="50" height="50" relative="1" as="geometry">
            <mxPoint x="667" y="-22" as="sourcePoint" />
            <mxPoint x="734" y="-180" as="targetPoint" />
          </mxGeometry>
        </mxCell>
        <mxCell id="5CWpA3QOyKz6j6wSETN9-19" value="" style="endArrow=none;dashed=1;html=1;rounded=0;startArrow=classicThin;startFill=1;entryX=0;entryY=0.5;entryDx=0;entryDy=0;exitX=1;exitY=0;exitDx=0;exitDy=0;" parent="1" source="5CWpA3QOyKz6j6wSETN9-6" target="5CWpA3QOyKz6j6wSETN9-7" edge="1">
          <mxGeometry width="50" height="50" relative="1" as="geometry">
            <mxPoint x="666" y="13" as="sourcePoint" />
            <mxPoint x="734" y="110" as="targetPoint" />
          </mxGeometry>
        </mxCell>
        <mxCell id="5CWpA3QOyKz6j6wSETN9-20" value="" style="endArrow=none;dashed=1;html=1;rounded=0;startArrow=classicThin;startFill=1;entryX=0;entryY=0.5;entryDx=0;entryDy=0;exitX=1;exitY=0.5;exitDx=0;exitDy=0;" parent="1" source="5CWpA3QOyKz6j6wSETN9-6" target="5CWpA3QOyKz6j6wSETN9-10" edge="1">
          <mxGeometry width="50" height="50" relative="1" as="geometry">
            <mxPoint x="836" y="-198" as="sourcePoint" />
            <mxPoint x="1004" y="-260" as="targetPoint" />
          </mxGeometry>
        </mxCell>
        <mxCell id="5CWpA3QOyKz6j6wSETN9-21" value="" style="endArrow=none;dashed=1;html=1;rounded=0;startArrow=classicThin;startFill=1;exitX=1;exitY=1;exitDx=0;exitDy=0;entryX=0;entryY=0.5;entryDx=0;entryDy=0;" parent="1" source="5CWpA3QOyKz6j6wSETN9-6" target="5CWpA3QOyKz6j6wSETN9-11" edge="1">
          <mxGeometry width="50" height="50" relative="1" as="geometry">
            <mxPoint x="854" y="-180" as="sourcePoint" />
            <mxPoint x="1004" y="-180" as="targetPoint" />
          </mxGeometry>
        </mxCell>
        <mxCell id="5CWpA3QOyKz6j6wSETN9-22" value="" style="endArrow=none;dashed=1;html=1;rounded=0;startArrow=classicThin;startFill=1;exitX=1;exitY=0;exitDx=0;exitDy=0;entryX=0;entryY=0.5;entryDx=0;entryDy=0;" parent="1" source="5CWpA3QOyKz6j6wSETN9-12" target="5CWpA3QOyKz6j6wSETN9-14" edge="1">
          <mxGeometry width="50" height="50" relative="1" as="geometry">
            <mxPoint x="836" y="-162" as="sourcePoint" />
            <mxPoint x="1004" y="-100" as="targetPoint" />
          </mxGeometry>
        </mxCell>
        <mxCell id="5CWpA3QOyKz6j6wSETN9-23" value="" style="endArrow=none;dashed=1;html=1;rounded=0;startArrow=classicThin;startFill=1;exitX=1;exitY=1;exitDx=0;exitDy=0;entryX=0;entryY=0.5;entryDx=0;entryDy=0;" parent="1" source="5CWpA3QOyKz6j6wSETN9-12" target="5CWpA3QOyKz6j6wSETN9-13" edge="1">
          <mxGeometry width="50" height="50" relative="1" as="geometry">
            <mxPoint x="836" y="92" as="sourcePoint" />
            <mxPoint x="1004" y="70" as="targetPoint" />
          </mxGeometry>
        </mxCell>
        <mxCell id="5CWpA3QOyKz6j6wSETN9-24" value="" style="endArrow=none;dashed=1;html=1;rounded=0;startArrow=classicThin;startFill=1;exitX=1;exitY=0.5;exitDx=0;exitDy=0;entryX=0;entryY=0.5;entryDx=0;entryDy=0;" parent="1" source="5CWpA3QOyKz6j6wSETN9-4" target="5CWpA3QOyKz6j6wSETN9-8" edge="1">
          <mxGeometry width="50" height="50" relative="1" as="geometry">
            <mxPoint x="836" y="128" as="sourcePoint" />
            <mxPoint x="1004" y="160" as="targetPoint" />
          </mxGeometry>
        </mxCell>
        <mxCell id="5CWpA3QOyKz6j6wSETN9-25" value="" style="endArrow=none;dashed=1;html=1;rounded=0;startArrow=classicThin;startFill=1;exitX=1;exitY=0.5;exitDx=0;exitDy=0;entryX=0;entryY=0.5;entryDx=0;entryDy=0;" parent="1" source="5CWpA3QOyKz6j6wSETN9-8" target="5CWpA3QOyKz6j6wSETN9-9" edge="1">
          <mxGeometry width="50" height="50" relative="1" as="geometry">
            <mxPoint x="674" y="305" as="sourcePoint" />
            <mxPoint x="734" y="305" as="targetPoint" />
          </mxGeometry>
        </mxCell>
        <mxCell id="5CWpA3QOyKz6j6wSETN9-26" value="Se dé&lt;span style=&quot;color: rgba(0, 0, 0, 0); font-family: monospace; font-size: 0px; text-align: start; text-wrap: nowrap;&quot;&gt;%3CmxGraphModel%3E%3Croot%3E%3CmxCell%20id%3D%220%22%2F%3E%3CmxCell%20id%3D%221%22%20parent%3D%220%22%2F%3E%3CmxCell%20id%3D%222%22%20value%3D%22Se%20connecter%22%20style%3D%22ellipse%3BwhiteSpace%3Dwrap%3Bhtml%3D1%3B%22%20vertex%3D%221%22%20parent%3D%221%22%3E%3CmxGeometry%20x%3D%22210%22%20y%3D%22175%22%20width%3D%22120%22%20height%3D%2250%22%20as%3D%22geometry%22%2F%3E%3C%2FmxCell%3E%3C%2Froot%3E%3C%2FmxGraphModel%3E&lt;/span&gt;conn&lt;span style=&quot;color: rgba(0, 0, 0, 0); font-family: monospace; font-size: 0px; text-align: start; text-wrap: nowrap;&quot;&gt;%3CmxGraphModel%3E%3Croot%3E%3CmxCell%20id%3D%220%22%2F%3E%3CmxCell%20id%3D%221%22%20parent%3D%220%22%2F%3E%3CmxCell%20id%3D%222%22%20value%3D%22Se%20connecter%22%20style%3D%22ellipse%3BwhiteSpace%3Dwrap%3Bhtml%3D1%3B%22%20vertex%3D%221%22%20parent%3D%221%22%3E%3CmxGeometry%20x%3D%22210%22%20y%3D%22175%22%20width%3D%22120%22%20height%3D%2250%22%20as%3D%22geometry%22%2F%3E%3C%2FmxCell%3E%3C%2Froot%3E%3C%2FmxGraphModel%3E&lt;/span&gt;ecter" style="ellipse;whiteSpace=wrap;html=1;" parent="1" vertex="1">
          <mxGeometry x="554" y="75" width="120" height="50" as="geometry" />
        </mxCell>
        <mxCell id="5CWpA3QOyKz6j6wSETN9-27" value="Se dé&lt;span style=&quot;color: rgba(0, 0, 0, 0); font-family: monospace; font-size: 0px; text-align: start; text-wrap: nowrap;&quot;&gt;%3CmxGraphModel%3E%3Croot%3E%3CmxCell%20id%3D%220%22%2F%3E%3CmxCell%20id%3D%221%22%20parent%3D%220%22%2F%3E%3CmxCell%20id%3D%222%22%20value%3D%22Se%20connecter%22%20style%3D%22ellipse%3BwhiteSpace%3Dwrap%3Bhtml%3D1%3B%22%20vertex%3D%221%22%20parent%3D%221%22%3E%3CmxGeometry%20x%3D%22210%22%20y%3D%22175%22%20width%3D%22120%22%20height%3D%2250%22%20as%3D%22geometry%22%2F%3E%3C%2FmxCell%3E%3C%2Froot%3E%3C%2FmxGraphModel%3E&lt;/span&gt;conn&lt;span style=&quot;color: rgba(0, 0, 0, 0); font-family: monospace; font-size: 0px; text-align: start; text-wrap: nowrap;&quot;&gt;%3CmxGraphModel%3E%3Croot%3E%3CmxCell%20id%3D%220%22%2F%3E%3CmxCell%20id%3D%221%22%20parent%3D%220%22%2F%3E%3CmxCell%20id%3D%222%22%20value%3D%22Se%20connecter%22%20style%3D%22ellipse%3BwhiteSpace%3Dwrap%3Bhtml%3D1%3B%22%20vertex%3D%221%22%20parent%3D%221%22%3E%3CmxGeometry%20x%3D%22210%22%20y%3D%22175%22%20width%3D%22120%22%20height%3D%2250%22%20as%3D%22geometry%22%2F%3E%3C%2FmxCell%3E%3C%2Froot%3E%3C%2FmxGraphModel%3E&lt;/span&gt;ecter" style="ellipse;whiteSpace=wrap;html=1;" parent="1" vertex="1">
          <mxGeometry x="544" y="365" width="120" height="50" as="geometry" />
        </mxCell>
        <mxCell id="5CWpA3QOyKz6j6wSETN9-28" value="" style="endArrow=none;dashed=1;html=1;rounded=0;startArrow=classicThin;startFill=1;entryX=0.5;entryY=0;entryDx=0;entryDy=0;exitX=0.5;exitY=1;exitDx=0;exitDy=0;" parent="1" source="5CWpA3QOyKz6j6wSETN9-5" target="5CWpA3QOyKz6j6wSETN9-26" edge="1">
          <mxGeometry width="50" height="50" relative="1" as="geometry">
            <mxPoint x="666" y="13" as="sourcePoint" />
            <mxPoint x="734" y="110" as="targetPoint" />
          </mxGeometry>
        </mxCell>
        <mxCell id="5CWpA3QOyKz6j6wSETN9-29" value="" style="endArrow=none;dashed=1;html=1;rounded=0;startArrow=classicThin;startFill=1;entryX=0.5;entryY=0;entryDx=0;entryDy=0;exitX=0.5;exitY=1;exitDx=0;exitDy=0;" parent="1" source="5CWpA3QOyKz6j6wSETN9-4" target="5CWpA3QOyKz6j6wSETN9-27" edge="1">
          <mxGeometry width="50" height="50" relative="1" as="geometry">
            <mxPoint x="624" y="20" as="sourcePoint" />
            <mxPoint x="624" y="85" as="targetPoint" />
          </mxGeometry>
        </mxCell>
        <mxCell id="5CWpA3QOyKz6j6wSETN9-30" value="extends" style="text;html=1;align=center;verticalAlign=middle;whiteSpace=wrap;rounded=0;" parent="1" vertex="1">
          <mxGeometry x="620" y="-125" width="60" height="30" as="geometry" />
        </mxCell>
        <mxCell id="5CWpA3QOyKz6j6wSETN9-31" value="&lt;font style=&quot;font-size: 16px;&quot;&gt;application de gestion de chantiers&lt;/font&gt;" style="text;html=1;align=center;verticalAlign=middle;whiteSpace=wrap;rounded=0;" parent="1" vertex="1">
          <mxGeometry x="734" y="-325" width="180" height="40" as="geometry" />
        </mxCell>
        <mxCell id="5CWpA3QOyKz6j6wSETN9-32" value="extends" style="text;html=1;align=center;verticalAlign=middle;whiteSpace=wrap;rounded=0;" parent="1" vertex="1">
          <mxGeometry x="554" y="30" width="60" height="30" as="geometry" />
        </mxCell>
        <mxCell id="5CWpA3QOyKz6j6wSETN9-33" value="extends" style="text;html=1;align=center;verticalAlign=middle;whiteSpace=wrap;rounded=0;" parent="1" vertex="1">
          <mxGeometry x="690" y="20" width="60" height="30" as="geometry" />
        </mxCell>
        <mxCell id="5CWpA3QOyKz6j6wSETN9-34" value="extends" style="text;html=1;align=center;verticalAlign=middle;whiteSpace=wrap;rounded=0;" parent="1" vertex="1">
          <mxGeometry x="870" y="30" width="60" height="30" as="geometry" />
        </mxCell>
        <mxCell id="5CWpA3QOyKz6j6wSETN9-35" value="extends" style="text;html=1;align=center;verticalAlign=middle;whiteSpace=wrap;rounded=0;" parent="1" vertex="1">
          <mxGeometry x="880" y="150" width="60" height="30" as="geometry" />
        </mxCell>
        <mxCell id="5CWpA3QOyKz6j6wSETN9-36" value="extends" style="text;html=1;align=center;verticalAlign=middle;whiteSpace=wrap;rounded=0;" parent="1" vertex="1">
          <mxGeometry x="890" y="-135" width="60" height="30" as="geometry" />
        </mxCell>
        <mxCell id="5CWpA3QOyKz6j6wSETN9-37" value="extends" style="text;html=1;align=center;verticalAlign=middle;whiteSpace=wrap;rounded=0;" parent="1" vertex="1">
          <mxGeometry x="890" y="-195" width="60" height="30" as="geometry" />
        </mxCell>
        <mxCell id="5CWpA3QOyKz6j6wSETN9-38" value="extends" style="text;html=1;align=center;verticalAlign=middle;whiteSpace=wrap;rounded=0;" parent="1" vertex="1">
          <mxGeometry x="890" y="-275" width="60" height="30" as="geometry" />
        </mxCell>
        <mxCell id="5CWpA3QOyKz6j6wSETN9-39" value="extends" style="text;html=1;align=center;verticalAlign=middle;whiteSpace=wrap;rounded=0;" parent="1" vertex="1">
          <mxGeometry x="890" y="270" width="60" height="30" as="geometry" />
        </mxCell>
        <mxCell id="5CWpA3QOyKz6j6wSETN9-40" value="extends" style="text;html=1;align=center;verticalAlign=middle;whiteSpace=wrap;rounded=0;" parent="1" vertex="1">
          <mxGeometry x="664" y="270" width="60" height="30" as="geometry" />
        </mxCell>
        <mxCell id="5CWpA3QOyKz6j6wSETN9-41" value="extends" style="text;html=1;align=center;verticalAlign=middle;whiteSpace=wrap;rounded=0;" parent="1" vertex="1">
          <mxGeometry x="604" y="335" width="60" height="30" as="geometry" />
        </mxCell>
        <mxCell id="vVaLSMuFjrk5duzyXfFS-1" value="Modifier un ouvrier" style="ellipse;whiteSpace=wrap;html=1;" vertex="1" parent="1">
          <mxGeometry x="994" y="80" width="120" height="50" as="geometry" />
        </mxCell>
        <mxCell id="vVaLSMuFjrk5duzyXfFS-2" value="" style="endArrow=none;dashed=1;html=1;rounded=0;startArrow=classicThin;startFill=1;exitX=1;exitY=0.5;exitDx=0;exitDy=0;entryX=0;entryY=0.5;entryDx=0;entryDy=0;" edge="1" parent="1" source="5CWpA3QOyKz6j6wSETN9-12" target="vVaLSMuFjrk5duzyXfFS-1">
          <mxGeometry width="50" height="50" relative="1" as="geometry">
            <mxPoint x="837" y="127" as="sourcePoint" />
            <mxPoint x="1004" y="185" as="targetPoint" />
          </mxGeometry>
        </mxCell>
        <mxCell id="vVaLSMuFjrk5duzyXfFS-3" value="extends" style="text;html=1;align=center;verticalAlign=middle;whiteSpace=wrap;rounded=0;" vertex="1" parent="1">
          <mxGeometry x="900" y="80" width="60" height="30" as="geometry" />
        </mxCell>
      </root>
    </mxGraphModel>
  </diagram>
</mxfile>
